<svg height="102.19" viewBox="0 0 318.29 102.19" width="318.29" xmlns="http://www.w3.org/2000/svg"><path d="m94 78.86a27.88 27.88 0 0 0 -6.18-.74 24.93 24.93 0 0 0 -9.32 1.64.81.81 0 0 0 -.46.73.88.88 0 0 0 .07.33c.29.83-.18 1.73-2.53 2.25-3.48.76-5.68 4.36-6.93 5.55-1.48 1.4-5.65 2.26-5 1.43a32.3 32.3 0 0 0 3.51-4.9c1-2 1.93-2.53 3.18-4.41a15.84 15.84 0 0 0 2.21-4 29.32 29.32 0 0 0 .45-4.15c.26-1.12 1.31-3.54 1.39-4.9 0-.77-3.22 1.1-4.77 1.1s-3.07-.93-4.45-1c-1.72-.08-2.82 1.32-4.37 1.07-.88-.14-1.63-.92-3.18-1-2.2-.08-4.89 1.23-9.95 1.07s-9.57-6.29-10.2-7.27c-.74-1.14-1.63-1.14-2.61-.24a1.67 1.67 0 0 1 -2.53-.42c-.65-1.14-2.4-4.48-5.1-5.18a4.13 4.13 0 0 0 -5.39 4.49c.25 2.45 1.84 3.14 2.57 4.44s1.11 2.15 2.5 2.73c1 .41 1.34 1 1.05 1.81s-1.28.86-1.95.9a5.21 5.21 0 0 1 -3.15-.79 7 7 0 0 1 -2.27-2.56 4.18 4.18 0 0 0 -3.77-2 4.5 4.5 0 0 0 -2.07.52 18.5 18.5 0 0 1 -8.54 2h-3.55a51.12 51.12 0 0 0 91.34 11.5" fill="#fff"/><path d="m102.15 73.38a2.59 2.59 0 1 0 2.58 2.62 2.59 2.59 0 0 0 -2.58-2.62zm0 .46a2.13 2.13 0 1 1 -2.15 2.16 2.12 2.12 0 0 1 2.15-2.16zm-.87.8v2.64h.4v-1.14h.46l.69 1.14h.45l-.75-1.16a.68.68 0 0 0 .68-.72c0-.53-.3-.76-.93-.76zm.4.34h.54c.28 0 .57.06.57.39s-.29.43-.64.43h-.47z" fill="#fff"/><path d="m51.1 0a51.12 51.12 0 0 0 -48.43 67.43h3.55a18.46 18.46 0 0 0 8.53-2 4.56 4.56 0 0 1 2.07-.51 4.16 4.16 0 0 1 3.77 2 6.94 6.94 0 0 0 2.28 2.56 5.19 5.19 0 0 0 3.15.79c.67 0 1.69-.2 1.94-.9s-.07-1.41-1.05-1.81c-1.38-.58-1.76-1.43-2.49-2.73s-2.32-2-2.57-4.45a4.13 4.13 0 0 1 5.38-4.48c2.71.7 4.45 4 5.1 5.18a1.68 1.68 0 0 0 2.53.41c1-.9 1.88-.9 2.61.24.63 1 5.23 7.1 10.2 7.27s7.75-1.15 10-1.07c1.54.06 2.29.84 3.18 1 1.55.25 2.65-1.16 4.36-1.07 1.39.06 2.9 1 4.45 1s4.82-1.87 4.77-1.1c-.08 1.36-1.13 3.78-1.38 4.89a29.56 29.56 0 0 1 -.49 4.15 16 16 0 0 1 -2.21 4c-1.25 1.88-2.16 2.44-3.18 4.41a30.88 30.88 0 0 1 -3.51 4.89c-.62.84 3.55 0 5-1.42 1.26-1.2 3.46-4.79 6.94-5.55 2.34-.52 2.81-1.42 2.53-2.25a.76.76 0 0 1 -.13-.38.81.81 0 0 1 .46-.73 25 25 0 0 1 9.33-1.64 27.28 27.28 0 0 1 6.17.74 51.11 51.11 0 0 0 -42.86-78.87z" fill="#100f0d"/><path d="m211.55 27.09v19.75h-.14c-1.57-2.59-5-4.56-9.81-4.56-8.42 0-15.75 7-15.7 18.69 0 10.76 6.63 17.89 15 17.89 5.06 0 9.28-2.41 11.37-6.33h.16l.4 5.54h7.88c-.16-2.38-.29-6.23-.29-9.81v-38.67zm16.8 4.8v46.18h3.47v-21.42a9.93 9.93 0 0 1 .47-3.45 11.49 11.49 0 0 1 10.57-7.93c7.17 0 9.65 5.75 9.65 12.06v20.74h3.49v-21.13c0-13-8.84-14.7-12.17-14.7a13.44 13.44 0 0 0 -7.06 2 12.86 12.86 0 0 0 -4.77 5.06h-.14v-16.38l-3.47-1zm72.52 3.43-3.47 1.28v6.4h-5.91v2.81h5.91v22.19c0 3.58.55 6.52 2.13 8.36a7.46 7.46 0 0 0 6.05 2.48 12.59 12.59 0 0 0 4.83-.84l-.41-2.68a12.19 12.19 0 0 1 -4 .55c-3.76 0-5.14-2.8-5.14-7.25v-22.77h10v-2.85h-10v-7.68zm-133.69 6.89c-11.26 0-17.12 9.15-17.12 18.81 0 10.72 6.66 17.74 18 17.74a31.75 31.75 0 0 0 12.24-2.22l-1.3-6.09a26.52 26.52 0 0 1 -9.66 1.62c-5.67 0-10.58-2.77-10.81-9.12l23.47.05a19.65 19.65 0 0 0 .32-3.78c0-7.67-3.71-17-15.09-17zm107.85 0a18.82 18.82 0 0 0 -10.28 3l1.1 2.52a15.31 15.31 0 0 1 8.79-2.61c8.29-.06 9 6.85 9 10.32v.94c-14.26-.15-21.39 4.72-21.39 12.8 0 4.68 3.28 9.63 10.32 9.63a13.24 13.24 0 0 0 11.17-5.81h.17l.51 5h3.19a57.3 57.3 0 0 1 -.51-8.32v-13.59c0-6.26-1.94-13.85-12-13.85zm-129.25 0c-3.78 0-7.86 2.51-9.59 7.44h-.25l-.33-6.65h-7.61c.19 3.12.29 6.56.29 11.25l-.08 23.75h8.79v-18.08a14.6 14.6 0 0 1 .23-2.67 7.8 7.8 0 0 1 7.93-6.69 12.5 12.5 0 0 1 2.67.25v-8.34a8.34 8.34 0 0 0 -2.07-.19zm20.85 6c5.93 0 7.34 5.28 7.3 8.53h-15.41c.4-3.54 2.66-8.48 8.11-8.48zm37.11.87a7.78 7.78 0 0 1 7.62 6.21 12.07 12.07 0 0 1 .19 2.31v5.3a10.55 10.55 0 0 1 -.26 2.58 7.86 7.86 0 0 1 -7.65 6.3c-5.57 0-8.76-4.7-8.76-11.13s3.16-11.52 8.86-11.52zm76.91 10.21h3v7.52a6.6 6.6 0 0 1 -.37 2.1 10.54 10.54 0 0 1 -10.36 7c-3.65 0-7-2.26-7-7.29-.02-7.28 7.7-9.09 14.73-9.28zm35.05 14.16a2.59 2.59 0 1 0 2.59 2.55 2.59 2.59 0 0 0 -2.59-2.55zm0 .46a2.12 2.12 0 1 1 -2.12 2.09 2.13 2.13 0 0 1 2.12-2.09zm-.87.81v2.63h.4v-1.14h.46l.7 1.14h.44l-.75-1.16a.68.68 0 0 0 .69-.72c0-.53-.31-.75-.93-.75zm.4.33h.54c.28 0 .58.06.58.39s-.3.43-.64.43h-.48z" fill="#231f20"/><path d="m62.35 74.18a1.94 1.94 0 0 1 .16 2.21 4.47 4.47 0 0 1 -1.24 1.47 3.28 3.28 0 0 1 -4.06 0c-1-.66-1.09-.88-2.52-.7-1 .14-1.43-.89-1.07-1.75s1.88-1.55 3.76-.45c.84.5 2.16 1.55 3.31.62a9.61 9.61 0 0 0 1.43-1.41.17.17 0 0 1 .12 0 .21.21 0 0 1 .11 0" fill="#100f0d"/><path d="m58.77 10.53a16.73 16.73 0 0 0 -3.5.52c-1.69.43-5 2.16-11.17.77-10.65-2.4-12.22 2.93-12.83 5.26s-2.08 8.92-2.08 8.92c-.49 2.69-1.13 7.37 15.4 10.52 7.71 1.48 8.1 3.48 8.41 4.89.61 2.56 1.59 4 2.69 4.77s0 1.34-1.22 1.47c-3.28.34-15.41-3.14-22.58-7.22-5.87-3.59-6-6.82-4.63-9.55-8.86-1-15.52.83-16.72 5-2.04 7.23 15.86 19.53 36.25 25.7 21.4 6.48 43.41 2 45.86-11.49 1.11-6.11-4-10.63-12.72-12.59a8 8 0 0 1 -4.42 5.5c-.46.24-.64-.15-.43-.52a25.55 25.55 0 0 0 1.78-3.38c.49-1.18.74-2.87-.23-6.38-1.92-6.92-5.93-16.16-8.85-19.16-2.11-2.16-5.5-3.16-9.01-3.03zm1 2.37h.23c3.27.07 5.9 1.37 5.86 2.9s-2.73 2.72-6 2.64a11.65 11.65 0 0 1 -2.86-.44.23.23 0 0 1 -.18-.22.21.21 0 0 1 .18-.18c2-.48 3.42-1.25 3.32-2-.12-1-2.8-1.49-6-1.18l-1 .14a.16.16 0 0 1 -.07-.3 13.85 13.85 0 0 1 4.75-1.26c.61-.06 1.19-.09 1.74-.1zm-24.32 6.16a1.62 1.62 0 0 1 1.24.54 4.33 4.33 0 0 0 3.31 1.79c1.55 0 3.33-.36 5.83-.36s4.17.97 4.31 1.75-.21 1.35-3 1.55c-5.9.43-6.52 1.06-7.62 2.24-1.56 1.66-3.61-2.15-3.61-2.15a3.16 3.16 0 0 1 -1.91-4.1c.36-.92.93-1.24 1.45-1.26z" fill="#cd1e25"/></svg>